<mxfile host="Electron" modified="2024-01-04T09:15:30.162Z" agent="Mozilla/5.0 (Windows NT 10.0; Win64; x64) AppleWebKit/537.36 (KHTML, like Gecko) draw.io/22.0.3 Chrome/114.0.5735.289 Electron/25.8.4 Safari/537.36" etag="P21X5gC4AHCiN8L2sATd" version="22.0.3" type="device">
  <diagram id="C5RBs43oDa-KdzZeNtuy" name="Page-1">
    <mxGraphModel dx="1861" dy="1781" grid="1" gridSize="10" guides="1" tooltips="1" connect="1" arrows="1" fold="1" page="1" pageScale="1" pageWidth="827" pageHeight="1169" math="0" shadow="0">
      <root>
        <mxCell id="WIyWlLk6GJQsqaUBKTNV-0" />
        <mxCell id="WIyWlLk6GJQsqaUBKTNV-1" parent="WIyWlLk6GJQsqaUBKTNV-0" />
        <mxCell id="hjYe9EG1fPk1mW8DKfCM-4" value="" style="edgeStyle=orthogonalEdgeStyle;rounded=0;orthogonalLoop=1;jettySize=auto;html=1;" parent="WIyWlLk6GJQsqaUBKTNV-1" source="WIyWlLk6GJQsqaUBKTNV-3" target="WIyWlLk6GJQsqaUBKTNV-7" edge="1">
          <mxGeometry relative="1" as="geometry" />
        </mxCell>
        <mxCell id="WIyWlLk6GJQsqaUBKTNV-3" value="&lt;font style=&quot;font-size: 10px;&quot;&gt;Pull All the episodes/requests assignment details from tblQueueHistory table in PreAuthin DB [QlikReplicate]&lt;/font&gt;" style="rounded=1;whiteSpace=wrap;html=1;fontSize=12;glass=0;strokeWidth=1;shadow=0;" parent="WIyWlLk6GJQsqaUBKTNV-1" vertex="1">
          <mxGeometry x="10" y="-11.25" width="180" height="56" as="geometry" />
        </mxCell>
        <mxCell id="hjYe9EG1fPk1mW8DKfCM-5" value="" style="edgeStyle=orthogonalEdgeStyle;rounded=0;orthogonalLoop=1;jettySize=auto;html=1;" parent="WIyWlLk6GJQsqaUBKTNV-1" source="WIyWlLk6GJQsqaUBKTNV-7" target="8zPs67hYcAgSf-_hAmkL-0" edge="1">
          <mxGeometry relative="1" as="geometry" />
        </mxCell>
        <mxCell id="WIyWlLk6GJQsqaUBKTNV-7" value="&lt;font style=&quot;font-size: 10px;&quot;&gt;Publish All the case assignment details (EpisodeId/RequestForServiceId,&lt;br&gt;AssignedToId)&amp;nbsp;to &lt;b&gt;IOPreAuthThindboTblQueueHisory&lt;br&gt;&lt;/b&gt;topic [Qlik Replicate]&lt;/font&gt;" style="rounded=1;whiteSpace=wrap;html=1;fontSize=12;glass=0;strokeWidth=1;shadow=0;" parent="WIyWlLk6GJQsqaUBKTNV-1" vertex="1">
          <mxGeometry x="241.5" y="-26.5" width="178.5" height="86.5" as="geometry" />
        </mxCell>
        <mxCell id="hjYe9EG1fPk1mW8DKfCM-21" value="" style="edgeStyle=orthogonalEdgeStyle;rounded=0;orthogonalLoop=1;jettySize=auto;html=1;" parent="WIyWlLk6GJQsqaUBKTNV-1" source="WIyWlLk6GJQsqaUBKTNV-11" target="roGR7Sw6wG9PhkM4mluV-18" edge="1">
          <mxGeometry relative="1" as="geometry" />
        </mxCell>
        <mxCell id="WIyWlLk6GJQsqaUBKTNV-11" value="&lt;font style=&quot;font-size: 10px;&quot;&gt;Fetch other attributes using EpisodeID/RequestForServiceID &lt;br&gt;and publish RoutingRequestAssigned event to UCX.RoutingRequestAssigned&lt;br&gt;Topic&lt;/font&gt;" style="rounded=1;whiteSpace=wrap;html=1;fontSize=12;glass=0;strokeWidth=1;shadow=0;" parent="WIyWlLk6GJQsqaUBKTNV-1" vertex="1">
          <mxGeometry x="10" y="224" width="190" height="80" as="geometry" />
        </mxCell>
        <mxCell id="hjYe9EG1fPk1mW8DKfCM-6" value="" style="edgeStyle=orthogonalEdgeStyle;rounded=0;orthogonalLoop=1;jettySize=auto;html=1;" parent="WIyWlLk6GJQsqaUBKTNV-1" source="8zPs67hYcAgSf-_hAmkL-0" target="roGR7Sw6wG9PhkM4mluV-0" edge="1">
          <mxGeometry relative="1" as="geometry" />
        </mxCell>
        <mxCell id="8zPs67hYcAgSf-_hAmkL-0" value="&lt;font style=&quot;font-size: 10px;&quot;&gt;Create new consumer in &lt;b&gt;UCX.ERSS.ACLService &lt;/b&gt;&amp;amp; llisten to IOPreAuthThindboTblQueueHisory topic events&lt;br&gt;&lt;/font&gt;&amp;nbsp;" style="rounded=1;whiteSpace=wrap;html=1;fontSize=12;glass=0;strokeWidth=1;shadow=0;" parent="WIyWlLk6GJQsqaUBKTNV-1" vertex="1">
          <mxGeometry x="480" y="-26.5" width="170" height="86.5" as="geometry" />
        </mxCell>
        <mxCell id="8zPs67hYcAgSf-_hAmkL-8" value="&lt;div style=&quot;text-align: left;&quot;&gt;&lt;span style=&quot;font-size: 10px; background-color: initial;&quot;&gt;New Topic:&amp;nbsp;&lt;/span&gt;&lt;/div&gt;&lt;b style=&quot;border-color: var(--border-color);&quot;&gt;&lt;font style=&quot;font-size: 10px;&quot;&gt;IOPreAuthThindboTblQueueHisory&lt;/font&gt;&lt;/b&gt;&lt;font style=&quot;font-size: 10px;&quot;&gt;&lt;div style=&quot;text-align: left;&quot;&gt;&lt;br&gt;&lt;/div&gt;&lt;/font&gt;" style="text;html=1;strokeColor=none;fillColor=none;align=center;verticalAlign=middle;whiteSpace=wrap;rounded=0;" parent="WIyWlLk6GJQsqaUBKTNV-1" vertex="1">
          <mxGeometry x="195" y="-60" width="260" height="47" as="geometry" />
        </mxCell>
        <mxCell id="8zPs67hYcAgSf-_hAmkL-16" value="&lt;font style=&quot;font-size: 10px;&quot;&gt;&lt;font style=&quot;&quot;&gt;Existing Observer:&amp;nbsp;&lt;/font&gt;&lt;b&gt;RoutingRequestAssignedObserver&lt;/b&gt;&lt;/font&gt;" style="text;html=1;strokeColor=none;fillColor=none;align=left;verticalAlign=middle;whiteSpace=wrap;rounded=0;" parent="WIyWlLk6GJQsqaUBKTNV-1" vertex="1">
          <mxGeometry x="260" y="294" width="270" height="30" as="geometry" />
        </mxCell>
        <mxCell id="8zPs67hYcAgSf-_hAmkL-18" value="&lt;font style=&quot;font-size: 10px;&quot;&gt;&lt;font style=&quot;&quot;&gt;&lt;font style=&quot;&quot;&gt;Existing event with additional UnAssigned field and version update:&amp;nbsp;&lt;/font&gt;&lt;/font&gt;&lt;b&gt;RoutingRequestAssigned&amp;nbsp; &amp;nbsp;Version 1.1.0&lt;/b&gt;&lt;br&gt;Existing topic:&lt;b&gt; UCX.&lt;/b&gt;&lt;b style=&quot;border-color: var(--border-color);&quot;&gt;RoutingRequestAssigned&lt;/b&gt;&lt;b&gt;&lt;br&gt;&lt;/b&gt;&lt;/font&gt;" style="text;html=1;strokeColor=none;fillColor=none;align=left;verticalAlign=middle;whiteSpace=wrap;rounded=0;" parent="WIyWlLk6GJQsqaUBKTNV-1" vertex="1">
          <mxGeometry x="-10" y="309" width="270" height="30" as="geometry" />
        </mxCell>
        <mxCell id="hjYe9EG1fPk1mW8DKfCM-3" value="" style="edgeStyle=orthogonalEdgeStyle;rounded=0;orthogonalLoop=1;jettySize=auto;html=1;" parent="WIyWlLk6GJQsqaUBKTNV-1" source="roGR7Sw6wG9PhkM4mluV-0" target="roGR7Sw6wG9PhkM4mluV-1" edge="1">
          <mxGeometry relative="1" as="geometry" />
        </mxCell>
        <mxCell id="hjYe9EG1fPk1mW8DKfCM-22" style="edgeStyle=orthogonalEdgeStyle;rounded=0;orthogonalLoop=1;jettySize=auto;html=1;exitX=0.5;exitY=1;exitDx=0;exitDy=0;exitPerimeter=0;" parent="WIyWlLk6GJQsqaUBKTNV-1" source="roGR7Sw6wG9PhkM4mluV-0" edge="1">
          <mxGeometry relative="1" as="geometry">
            <mxPoint x="690" y="91.79999999999995" as="sourcePoint" />
            <mxPoint x="105" y="230" as="targetPoint" />
            <Array as="points">
              <mxPoint x="755" y="130" />
              <mxPoint x="106" y="130" />
            </Array>
          </mxGeometry>
        </mxCell>
        <mxCell id="roGR7Sw6wG9PhkM4mluV-0" value="&lt;font style=&quot;font-size: 10px;&quot;&gt;Is the &lt;br&gt;AssignedToId &lt;br&gt;having valid &lt;br&gt;Email in&lt;br&gt;&amp;nbsp;AzureAD?&lt;/font&gt;" style="strokeWidth=2;html=1;shape=mxgraph.flowchart.decision;whiteSpace=wrap;" parent="WIyWlLk6GJQsqaUBKTNV-1" vertex="1">
          <mxGeometry x="690" y="-48.75" width="130" height="131" as="geometry" />
        </mxCell>
        <mxCell id="roGR7Sw6wG9PhkM4mluV-1" value="&lt;font style=&quot;font-size: 10px;&quot;&gt;Skip processing the Request Assignment event message&lt;/font&gt;" style="rounded=1;whiteSpace=wrap;html=1;strokeWidth=2;" parent="WIyWlLk6GJQsqaUBKTNV-1" vertex="1">
          <mxGeometry x="870" y="-13.25" width="120" height="60" as="geometry" />
        </mxCell>
        <mxCell id="roGR7Sw6wG9PhkM4mluV-3" value="No" style="text;html=1;strokeColor=none;fillColor=none;align=center;verticalAlign=middle;whiteSpace=wrap;rounded=0;" parent="WIyWlLk6GJQsqaUBKTNV-1" vertex="1">
          <mxGeometry x="550" y="309" width="60" height="30" as="geometry" />
        </mxCell>
        <mxCell id="hjYe9EG1fPk1mW8DKfCM-2" value="" style="edgeStyle=orthogonalEdgeStyle;rounded=0;orthogonalLoop=1;jettySize=auto;html=1;" parent="WIyWlLk6GJQsqaUBKTNV-1" source="roGR7Sw6wG9PhkM4mluV-18" target="hjYe9EG1fPk1mW8DKfCM-1" edge="1">
          <mxGeometry relative="1" as="geometry" />
        </mxCell>
        <mxCell id="roGR7Sw6wG9PhkM4mluV-18" value="&lt;font style=&quot;font-size: 10px;&quot;&gt;RoutingRequestAssignedObserver in RequestRouting service will consumer the message from UCX.RoutingRequestAssigned&amp;nbsp;Topic&amp;nbsp;&lt;br&gt;&amp;nbsp;&lt;/font&gt;" style="rounded=1;whiteSpace=wrap;html=1;fontSize=12;glass=0;strokeWidth=1;shadow=0;" parent="WIyWlLk6GJQsqaUBKTNV-1" vertex="1">
          <mxGeometry x="260" y="229" width="190" height="70" as="geometry" />
        </mxCell>
        <mxCell id="roGR7Sw6wG9PhkM4mluV-23" value="No" style="text;html=1;strokeColor=none;fillColor=none;align=center;verticalAlign=middle;whiteSpace=wrap;rounded=0;" parent="WIyWlLk6GJQsqaUBKTNV-1" vertex="1">
          <mxGeometry x="810" y="16.75" width="60" height="30" as="geometry" />
        </mxCell>
        <mxCell id="roGR7Sw6wG9PhkM4mluV-28" value="Yes" style="text;html=1;strokeColor=none;fillColor=none;align=center;verticalAlign=middle;whiteSpace=wrap;rounded=0;" parent="WIyWlLk6GJQsqaUBKTNV-1" vertex="1">
          <mxGeometry x="740" y="90" width="60" height="30" as="geometry" />
        </mxCell>
        <mxCell id="hjYe9EG1fPk1mW8DKfCM-15" value="" style="edgeStyle=orthogonalEdgeStyle;rounded=0;orthogonalLoop=1;jettySize=auto;html=1;" parent="WIyWlLk6GJQsqaUBKTNV-1" source="hjYe9EG1fPk1mW8DKfCM-1" target="hjYe9EG1fPk1mW8DKfCM-12" edge="1">
          <mxGeometry relative="1" as="geometry" />
        </mxCell>
        <mxCell id="hjYe9EG1fPk1mW8DKfCM-18" value="" style="edgeStyle=orthogonalEdgeStyle;rounded=0;orthogonalLoop=1;jettySize=auto;html=1;" parent="WIyWlLk6GJQsqaUBKTNV-1" source="hjYe9EG1fPk1mW8DKfCM-1" target="hjYe9EG1fPk1mW8DKfCM-7" edge="1">
          <mxGeometry relative="1" as="geometry" />
        </mxCell>
        <mxCell id="hjYe9EG1fPk1mW8DKfCM-1" value="&lt;font style=&quot;font-size: 10px;&quot;&gt;Is the&lt;br&gt;&amp;nbsp;event for &lt;br&gt;UnAssignment?&lt;/font&gt;" style="strokeWidth=2;html=1;shape=mxgraph.flowchart.decision;whiteSpace=wrap;" parent="WIyWlLk6GJQsqaUBKTNV-1" vertex="1">
          <mxGeometry x="494" y="214" width="133" height="100" as="geometry" />
        </mxCell>
        <mxCell id="hjYe9EG1fPk1mW8DKfCM-19" style="edgeStyle=orthogonalEdgeStyle;rounded=0;orthogonalLoop=1;jettySize=auto;html=1;entryX=0.25;entryY=1;entryDx=0;entryDy=0;" parent="WIyWlLk6GJQsqaUBKTNV-1" source="hjYe9EG1fPk1mW8DKfCM-7" edge="1">
          <mxGeometry relative="1" as="geometry">
            <mxPoint x="876.5" y="306" as="targetPoint" />
          </mxGeometry>
        </mxCell>
        <mxCell id="hjYe9EG1fPk1mW8DKfCM-31" value="" style="edgeStyle=orthogonalEdgeStyle;rounded=0;orthogonalLoop=1;jettySize=auto;html=1;" parent="WIyWlLk6GJQsqaUBKTNV-1" source="hjYe9EG1fPk1mW8DKfCM-7" target="hjYe9EG1fPk1mW8DKfCM-11" edge="1">
          <mxGeometry relative="1" as="geometry" />
        </mxCell>
        <mxCell id="hjYe9EG1fPk1mW8DKfCM-7" value="&lt;font style=&quot;font-size: 10px;&quot;&gt;Is the&lt;br&gt;&amp;nbsp;AssignedToId &lt;br&gt;has MD role?&lt;/font&gt;" style="strokeWidth=2;html=1;shape=mxgraph.flowchart.decision;whiteSpace=wrap;" parent="WIyWlLk6GJQsqaUBKTNV-1" vertex="1">
          <mxGeometry x="491.5" y="350" width="138" height="110" as="geometry" />
        </mxCell>
        <mxCell id="hjYe9EG1fPk1mW8DKfCM-33" value="" style="edgeStyle=orthogonalEdgeStyle;rounded=0;orthogonalLoop=1;jettySize=auto;html=1;" parent="WIyWlLk6GJQsqaUBKTNV-1" source="hjYe9EG1fPk1mW8DKfCM-8" target="hjYe9EG1fPk1mW8DKfCM-9" edge="1">
          <mxGeometry relative="1" as="geometry" />
        </mxCell>
        <mxCell id="hjYe9EG1fPk1mW8DKfCM-8" value="&lt;font style=&quot;font-size: 10px;&quot;&gt;RoutingRequestAssignedObserver will change the assignement for the Request and updates the same in Azure Search Index&lt;/font&gt;" style="rounded=1;whiteSpace=wrap;html=1;fontSize=12;glass=0;strokeWidth=1;shadow=0;" parent="WIyWlLk6GJQsqaUBKTNV-1" vertex="1">
          <mxGeometry x="827" y="225.5" width="200" height="77" as="geometry" />
        </mxCell>
        <mxCell id="hjYe9EG1fPk1mW8DKfCM-9" value="&lt;font style=&quot;font-size: 10px;&quot;&gt;MD assigned to the request can fetch the request by GetNext action in UCX&lt;/font&gt;" style="rounded=1;whiteSpace=wrap;html=1;" parent="WIyWlLk6GJQsqaUBKTNV-1" vertex="1">
          <mxGeometry x="867" y="490" width="120" height="60" as="geometry" />
        </mxCell>
        <mxCell id="hjYe9EG1fPk1mW8DKfCM-11" value="&lt;font style=&quot;font-size: 10px;&quot;&gt;Skip updating assignment for the Request&lt;/font&gt;" style="rounded=1;whiteSpace=wrap;html=1;strokeWidth=2;" parent="WIyWlLk6GJQsqaUBKTNV-1" vertex="1">
          <mxGeometry x="500.5" y="490" width="120" height="60" as="geometry" />
        </mxCell>
        <mxCell id="hjYe9EG1fPk1mW8DKfCM-24" value="" style="edgeStyle=orthogonalEdgeStyle;rounded=0;orthogonalLoop=1;jettySize=auto;html=1;" parent="WIyWlLk6GJQsqaUBKTNV-1" source="hjYe9EG1fPk1mW8DKfCM-12" target="hjYe9EG1fPk1mW8DKfCM-8" edge="1">
          <mxGeometry relative="1" as="geometry" />
        </mxCell>
        <mxCell id="hjYe9EG1fPk1mW8DKfCM-12" value="&lt;font style=&quot;font-size: 10px;&quot;&gt;Update the AssignedToId to null for the Request in Azure search&lt;/font&gt;" style="rounded=1;whiteSpace=wrap;html=1;strokeWidth=2;" parent="WIyWlLk6GJQsqaUBKTNV-1" vertex="1">
          <mxGeometry x="672" y="234" width="120" height="60" as="geometry" />
        </mxCell>
        <mxCell id="hjYe9EG1fPk1mW8DKfCM-26" value="&lt;font style=&quot;font-size: 10px;&quot;&gt;New Observer:&amp;nbsp;&lt;b style=&quot;border-color: var(--border-color); background-color: initial;&quot;&gt;CaseAssignmentChangedIOneObserver&lt;/b&gt;&lt;/font&gt;" style="text;html=1;strokeColor=none;fillColor=none;align=left;verticalAlign=middle;whiteSpace=wrap;rounded=0;" parent="WIyWlLk6GJQsqaUBKTNV-1" vertex="1">
          <mxGeometry x="440" y="-60" width="250" height="30" as="geometry" />
        </mxCell>
        <mxCell id="hjYe9EG1fPk1mW8DKfCM-27" value="No" style="text;html=1;strokeColor=none;fillColor=none;align=center;verticalAlign=middle;whiteSpace=wrap;rounded=0;" parent="WIyWlLk6GJQsqaUBKTNV-1" vertex="1">
          <mxGeometry x="560.5" y="440" width="60" height="30" as="geometry" />
        </mxCell>
        <mxCell id="hjYe9EG1fPk1mW8DKfCM-28" value="Yes" style="text;html=1;strokeColor=none;fillColor=none;align=center;verticalAlign=middle;whiteSpace=wrap;rounded=0;" parent="WIyWlLk6GJQsqaUBKTNV-1" vertex="1">
          <mxGeometry x="610" y="234" width="60" height="30" as="geometry" />
        </mxCell>
        <mxCell id="hjYe9EG1fPk1mW8DKfCM-29" value="Yes" style="text;html=1;strokeColor=none;fillColor=none;align=center;verticalAlign=middle;whiteSpace=wrap;rounded=0;" parent="WIyWlLk6GJQsqaUBKTNV-1" vertex="1">
          <mxGeometry x="650" y="370" width="60" height="30" as="geometry" />
        </mxCell>
      </root>
    </mxGraphModel>
  </diagram>
</mxfile>
